<svg width="1440" height="104" viewBox="0 0 1440 104" fill="none" xmlns="http://www.w3.org/2000/svg">
<path d="M153.766 74.2855C101.539 74.4243 50.5846 76.256 0.432617 82.6426V104L502.248 103.538C476.407 99.905 449.775 96.1603 424.353 92.8569C337.669 81.8191 246.493 74.0078 153.766 74.2855Z" fill="url(#paint0_linear)"/>
<path d="M153.767 74.7855L153.767 74.7855C246.466 74.5079 337.62 82.3168 424.29 93.3529C447.408 96.357 471.528 99.7261 495.146 103.045L0.932617 103.499V83.0831C50.9145 76.7451 101.701 74.9239 153.767 74.7855Z" stroke="white" stroke-opacity="0.08"/>
<path d="M153.765 74.2859C101.539 74.4247 50.5846 79.0421 0.432617 85.4287V39.0002C53.6481 32.1758 107.585 28.4262 162.785 29.7145C251.357 31.8036 334.698 42.8665 415.333 55.7145C525.201 73.4731 645.672 87.5056 761.462 104H496.51C470.668 100.367 449.775 96.1608 424.353 92.8573C337.669 81.8195 246.493 74.0082 153.765 74.2859Z" fill="url(#paint1_linear)"/>
<path d="M153.764 73.7859C101.705 73.9243 50.9145 78.5101 0.932617 84.8611V39.4402C53.9873 32.6538 107.755 28.9303 162.773 30.2143C251.312 32.3026 334.627 43.3615 415.255 56.2082C483.896 67.3031 556.684 76.9448 629.875 86.6401C671.476 92.1506 713.207 97.6785 754.381 103.5H496.545C484.752 101.842 473.99 100.064 463.35 98.306C462.351 98.141 461.353 97.9762 460.355 97.8117C448.724 95.893 437.137 94.0144 424.417 92.3615L424.416 92.3613C337.719 81.3218 246.52 73.5081 153.764 73.7859ZM153.764 73.7859L153.765 74.2859M153.764 73.7859C153.764 73.7859 153.764 73.7859 153.764 73.7859L153.765 74.2859M153.765 74.2859C101.712 74.4243 50.9233 79.0115 0.932617 85.3651L424.353 92.8573C337.669 81.8195 246.493 74.0082 153.765 74.2859ZM0.432617 84.9247L0.432617 39.0002C53.6481 32.1758 107.585 28.4262 162.785 29.7145C251.357 31.8036 334.698 42.8665 415.333 55.7145L0.432617 84.9247Z" stroke="white" stroke-opacity="0.08"/>
<path d="M415.333 55.7143C334.698 42.8663 251.357 31.8034 162.785 29.7143C107.585 28.426 53.6481 32.1756 0.432617 39V0H352.196L599.107 47.6306C599.107 47.6306 676.462 65.404 866.312 86.9312C1056.16 108.458 1257.95 102.528 1443.57 79.3774V104H761.462C645.672 87.5054 525.201 73.4729 415.333 55.7143Z" fill="url(#paint2_linear)"/>
<path d="M415.413 55.2207L415.412 55.2205C334.769 42.3713 251.402 31.3043 162.797 29.2144L162.797 29.2144C107.762 27.93 53.9847 31.6508 0.932617 38.4319V0.5H352.148L598.996 48.1181L598.999 48.1188L599.01 48.1213L599.013 48.1215L599.053 48.1311L599.225 48.17C599.378 48.2044 599.607 48.2558 599.914 48.3237C600.529 48.4594 601.454 48.6611 602.698 48.9254C605.187 49.454 608.952 50.2329 614.064 51.2347C624.288 53.2383 639.895 56.1336 661.434 59.7015C704.513 66.8372 771.323 76.6635 866.256 87.428C1055.96 108.939 1257.58 103.04 1443.07 79.9436V103.5H761.498C718.043 97.31 673.937 91.4676 629.982 85.6452C556.803 75.9517 484.044 66.3138 415.413 55.2207Z" stroke="white" stroke-opacity="0.08"/>
<path d="M418.194 12.9472C415.334 11.3307 413.594 12.0296 411.249 11.5708C388.275 7.55379 372.933 3.54704 352.197 0H568.667C653.052 18.3668 737.96 34.8203 833.61 46.6805C1021.83 70.0339 1222.77 67.7471 1409.19 44.8441C1420.74 43.4235 1432.11 41.9336 1443.57 40.3744V79.3774C1257.95 102.528 1056.16 108.458 866.313 86.9312C703.429 68.4743 559.647 41.5458 418.194 12.9472Z" fill="url(#paint3_linear)"/>
<path d="M411.345 11.0801L411.345 11.08L411.335 11.0783C399.861 9.07205 390.292 7.06834 380.995 5.1217L380.986 5.11978C373.401 3.53154 365.996 1.98108 357.891 0.5H568.613C652.988 18.8639 737.897 35.3164 833.549 47.1767C1021.81 70.5356 1222.8 68.2479 1409.25 45.3404L1409.19 44.8441L1409.25 45.3404C1420.61 43.9429 1431.8 42.4784 1443.07 40.947V78.9359C1257.61 102.037 1056.02 107.939 866.369 86.4344C703.537 67.9832 559.794 41.0646 418.37 12.4726C416.896 11.653 415.692 11.4141 414.567 11.3264C414.194 11.2973 413.819 11.2844 413.457 11.272C413.282 11.266 413.111 11.2602 412.944 11.2526C412.417 11.2289 411.897 11.188 411.345 11.0801Z" stroke="white" stroke-opacity="0.08"/>
<path d="M776.117 0C947.749 23.1381 1161.51 30.0641 1336.01 12.1421C1372.51 8.39726 1408.49 5.51702 1443.57 0H776.117Z" fill="url(#paint4_linear)"/>
<path d="M1335.95 11.6448C1164.03 29.3024 953.969 22.8336 783.67 0.5H1436.97C1412.06 4.18453 1386.71 6.65505 1361.04 9.15726C1352.71 9.96892 1344.35 10.7839 1335.95 11.6448Z" stroke="white" stroke-opacity="0.08"/>
<defs>
<linearGradient id="paint0_linear" x1="0.432617" y1="88.9198" x2="351.815" y2="157.748" gradientUnits="userSpaceOnUse">
<stop stop-color="white" stop-opacity="0.16"/>
<stop offset="1" stop-color="white" stop-opacity="0"/>
</linearGradient>
<linearGradient id="paint1_linear" x1="0.432617" y1="85.2801" x2="760.571" y2="55.9804" gradientUnits="userSpaceOnUse">
<stop stop-color="white" stop-opacity="0.16"/>
<stop offset="1" stop-color="white" stop-opacity="0"/>
</linearGradient>
<linearGradient id="paint2_linear" x1="0.432617" y1="79.04" x2="1434.82" y2="-47.3033" gradientUnits="userSpaceOnUse">
<stop stop-color="white" stop-opacity="0.16"/>
<stop offset="1" stop-color="white" stop-opacity="0"/>
</linearGradient>
<linearGradient id="paint3_linear" x1="1443.57" y1="65.52" x2="386.33" y2="109.461" gradientUnits="userSpaceOnUse">
<stop stop-color="white" stop-opacity="0.16"/>
<stop offset="1" stop-color="white" stop-opacity="0"/>
</linearGradient>
<linearGradient id="paint4_linear" x1="1081.66" y1="22.36" x2="1099.32" y2="-15.0743" gradientUnits="userSpaceOnUse">
<stop stop-color="white" stop-opacity="0.16"/>
<stop offset="1" stop-color="white" stop-opacity="0"/>
</linearGradient>
</defs>
</svg>



